<svg version="1.2" xmlns="http://www.w3.org/2000/svg" viewBox="0 0 337 337" width="337" height="337">
	<title>микро тундра-01-svg</title>
	<style>
		.s0 { fill: #9ab9bc } 
		.s1 { fill: #ffffff } 
		.s2 { fill: #9bbabd } 
	</style>
	<path id="Layer" class="s0" d="m265.8 240.4v20.7q0 0.3-0.1 0.6-0.1 0.4-0.2 0.7-0.1 0.3-0.3 0.5-0.2 0.3-0.4 0.5-0.1 0.1-0.2 0.2-0.1 0.1-0.2 0.2-0.1 0.1-0.2 0.2-0.1 0.1-0.2 0.2-0.2 0.2-0.5 0.3-0.3 0.2-0.6 0.3-0.3 0.1-0.7 0.2-0.3 0-0.6 0h-41.3q-0.1 0-0.2 0 0 0.1-0.1 0.1 0 0.1 0 0.1 0 0.1 0 0.2 0 0.4 0 0.7v14.4q0 0.1 0 0.3 0 0.2-0.1 0.3 0 0.2 0 0.3 0 0.2-0.1 0.4-0.1 0.3-0.2 0.5-0.1 0.3-0.2 0.5-0.2 0.3-0.4 0.5-0.2 0.3-0.4 0.5-0.2 0.2-0.4 0.3-0.2 0.2-0.4 0.3-0.2 0.1-0.5 0.3-0.2 0.1-0.4 0.1-0.2 0.1-0.3 0.1-0.1 0-0.2 0-0.2 0.1-0.3 0.1-0.1 0-0.3 0h-3.5q-0.4 0-0.7-0.1-0.4-0.1-0.7-0.2-0.3-0.1-0.6-0.3-0.3-0.2-0.6-0.4-0.3-0.3-0.5-0.6-0.3-0.3-0.5-0.6-0.1-0.4-0.3-0.8-0.1-0.3-0.2-0.7 0-0.1 0-0.3 0-0.1 0-0.2 0-0.1 0-0.3 0-0.1 0-0.2v-13.9q0-0.5 0-1.1 0 0 0-0.1 0-0.1 0-0.1-0.1-0.1-0.2-0.1 0 0-0.1 0h-33.1c-1.1 0-1-0.1-1 1q0 7.2 0 14.4 0 0.2 0 0.3 0 0.2 0 0.4 0 0.1-0.1 0.3 0 0.2 0 0.3-0.1 0.3-0.2 0.6-0.1 0.3-0.3 0.5-0.2 0.3-0.4 0.5-0.1 0.3-0.4 0.5-0.1 0.2-0.4 0.3-0.2 0.2-0.4 0.3-0.2 0.1-0.4 0.2-0.3 0.1-0.5 0.2-0.1 0-0.2 0-0.1 0-0.1 0-0.1 0.1-0.2 0.1-0.1 0-0.1 0-2.1 0-4.2 0-0.3 0-0.6-0.1-0.3-0.1-0.6-0.2-0.3-0.1-0.6-0.3-0.2-0.2-0.4-0.4-0.4-0.3-0.7-0.7-0.3-0.4-0.5-0.8-0.2-0.5-0.3-0.9-0.1-0.5-0.1-1 0-7.2 0-14.4c0-1.3 0.1-1.1-1.1-1.1h-33q-0.1 0-0.1 0-0.1 0-0.1 0-0.1 0.1-0.1 0.1 0 0.1 0 0.2v14.5q0 0.4 0 0.8 0 0.4-0.1 0.8-0.1 0.5-0.3 0.9-0.1 0.4-0.4 0.7-0.2 0.4-0.6 0.7-0.1 0.2-0.3 0.3-0.3 0.2-0.5 0.3-0.2 0.2-0.4 0.3-0.3 0.1-0.5 0.2-0.1 0-0.3 0-0.1 0-0.2 0.1-0.1 0-0.2 0-0.2 0-0.3 0h-3.6q-0.4 0-0.7-0.1-0.4 0-0.7-0.2-0.3-0.1-0.6-0.3-0.3-0.2-0.6-0.4-0.3-0.3-0.5-0.6-0.3-0.3-0.5-0.6-0.1-0.3-0.3-0.7-0.1-0.4-0.1-0.7-0.1-0.1-0.1-0.3 0-0.1 0-0.2 0-0.1 0-0.2 0-0.1 0.1-0.2-0.1-4.9 0-9.8-0.1-2.3 0-4.6-0.1-0.4 0-0.7-0.1-0.1-0.1-0.1 0-0.1 0-0.1-0.1-0.1-0.1-0.1-0.1 0-0.1 0h-40.9q-0.2 0-0.4 0-0.2 0-0.4 0-0.2 0-0.4-0.1-0.1 0-0.3 0-0.4-0.1-0.8-0.3-0.4-0.2-0.7-0.4-0.4-0.3-0.6-0.6-0.3-0.3-0.5-0.7-0.2-0.2-0.3-0.5-0.2-0.3-0.2-0.7-0.1-0.3-0.2-0.6 0-0.3 0-0.6v-40c0-1.5 0.1-1.3-1.3-1.3h-13.7q-0.2 0-0.5 0-0.2 0-0.4-0.1-0.2 0-0.5 0-0.2-0.1-0.4-0.2-0.4-0.1-0.8-0.3-0.4-0.2-0.7-0.4-0.3-0.3-0.6-0.7-0.2-0.3-0.4-0.7-0.1-0.2-0.2-0.4-0.1-0.2-0.2-0.5-0.1-0.2-0.1-0.4 0-0.3 0-0.5 0-1.7 0-3.4 0-0.3 0-0.7 0.1-0.3 0.2-0.6 0.1-0.3 0.3-0.6 0.1-0.3 0.4-0.5 0.2-0.3 0.4-0.6 0.3-0.2 0.5-0.4 0.3-0.2 0.6-0.3 0.4-0.2 0.7-0.3 0.1 0 0.2 0 0.1-0.1 0.1-0.1 0.1 0 0.2 0 0.1 0 0.2 0h15.6q0.1 0 0.2 0 0 0 0.1-0.1 0 0 0-0.1 0.1-0.1 0.1-0.1 0-0.4 0-0.7v-32.5c0-1.1 0-1-1-1q-7 0-14 0-0.3 0-0.5 0-0.2 0-0.4-0.1-0.3 0-0.5 0-0.2-0.1-0.4-0.2-0.5-0.1-0.8-0.3-0.4-0.2-0.7-0.4-0.4-0.3-0.6-0.7-0.3-0.3-0.5-0.7-0.1-0.2-0.2-0.4-0.1-0.2-0.1-0.5-0.1-0.2-0.1-0.4-0.1-0.3 0-0.5-0.1-1.7-0.1-3.4 0.1-0.3 0.1-0.7 0.1-0.3 0.2-0.6 0.1-0.3 0.2-0.6 0.2-0.2 0.4-0.5 0.2-0.3 0.5-0.5 0.2-0.3 0.5-0.5 0.3-0.2 0.6-0.3 0.3-0.2 0.6-0.3 0.1 0 0.2 0 0.1 0 0.2 0 0.1-0.1 0.2-0.1 0 0 0.1 0h15.7q0 0 0.1 0 0.1 0 0.2 0 0-0.1 0.1-0.1 0-0.1 0-0.2 0-0.3 0-0.7v-32.4c0-1.1 0.1-1-1-1h-14q-0.2 0-0.5 0-0.2 0-0.4-0.1-0.2 0-0.5 0-0.2-0.1-0.4-0.2-0.4-0.1-0.8-0.3-0.4-0.2-0.7-0.4-0.3-0.3-0.6-0.7-0.3-0.3-0.4-0.7-0.2-0.2-0.2-0.4-0.1-0.2-0.2-0.5-0.1-0.2-0.1-0.4 0-0.3 0-0.5 0-1.7 0-3.4 0-0.3 0-0.7 0.1-0.3 0.2-0.6 0.1-0.3 0.3-0.6 0.1-0.3 0.3-0.5 0.2-0.3 0.5-0.6 0.2-0.2 0.5-0.4 0.3-0.2 0.6-0.3 0.3-0.2 0.7-0.3 0.1 0 0.1 0 0.1-0.1 0.2-0.1 0.1 0 0.2 0 0.1 0 0.2 0h15.5c0.4 0 0.5-0.1 0.5-0.5 0-0.4 0-0.5 0-0.8v-39.7q0-0.3 0-0.5 0-0.3 0-0.6 0.1-0.2 0.2-0.5 0-0.3 0.1-0.5 0.2-0.5 0.5-1 0.3-0.4 0.7-0.7 0.4-0.4 0.8-0.6 0.5-0.3 1-0.4 0.2-0.1 0.4-0.1 0.2 0 0.4-0.1 0.2 0 0.4 0 0.2 0 0.4 0h40.2c0.9 0 0.8 0 0.8-0.8v-0.6q0-7 0-13.9 0-0.3 0.1-0.6 0-0.3 0.1-0.6 0-0.3 0.2-0.5 0.1-0.3 0.2-0.6 0.2-0.4 0.5-0.7 0.3-0.4 0.7-0.7 0.3-0.2 0.7-0.4 0.5-0.2 0.9-0.4 0.2 0 0.3 0 0.2-0.1 0.3-0.1 0.2 0 0.4 0 0.1 0 0.3 0 1.4 0 2.7 0 0.4 0 0.8 0.1 0.4 0 0.8 0.2 0.4 0.1 0.7 0.4 0.4 0.2 0.6 0.4 0.4 0.3 0.6 0.7 0.3 0.4 0.5 0.8 0.2 0.4 0.3 0.8 0.1 0.5 0 0.9 0.1 1.5 0 3.1 0.1 5.8 0 11.7c0 0.8 0 0.8 0.9 0.8q7 0 14 0h18.5q0.4 0 0.9 0 0 0 0.1 0 0 0 0 0 0.1-0.1 0.1-0.1 0-0.1 0-0.1 0-0.4 0-0.9 0-7.1 0-14.1 0-0.3 0-0.6 0.1-0.3 0.1-0.6 0.1-0.3 0.2-0.6 0.1-0.3 0.3-0.6 0.2-0.4 0.5-0.7 0.3-0.4 0.6-0.7 0.4-0.2 0.8-0.4 0.4-0.2 0.9-0.3 0.1-0.1 0.3-0.1 0.1 0 0.3-0.1 0.1 0 0.3 0 0.1 0 0.3 0 1.3 0 2.5 0 0.2 0 0.5 0 0.2 0 0.4 0.1 0.2 0 0.4 0.1 0.2 0 0.4 0.1 0.5 0.2 1 0.5 0.4 0.2 0.8 0.6 0.3 0.4 0.6 0.9 0.2 0.4 0.4 0.9 0 0.2 0 0.4 0.1 0.2 0.1 0.3 0 0.2 0 0.4 0 0.2 0 0.3 0 7.1 0 14.2c0 1.3-0.1 1.1 1.2 1.1h32.9q0.1 0 0.2 0 0 0 0.1-0.1 0 0 0-0.1 0.1 0 0-0.1 0-0.4 0-0.8 0-7.1 0-14.2 0-0.2 0.1-0.5 0-0.3 0.1-0.6 0-0.3 0.1-0.6 0.2-0.3 0.3-0.5 0.2-0.4 0.5-0.8 0.3-0.4 0.7-0.6 0.4-0.3 0.8-0.5 0.4-0.2 0.9-0.3 0.1-0.1 0.3-0.1 0.1 0 0.3-0.1 0.1 0 0.3 0 0.1 0 0.3 0 1.2 0 2.5 0 0.2 0 0.4 0 0.2 0 0.4 0.1 0.2 0 0.4 0.1 0.2 0 0.4 0.1 0.5 0.1 1 0.4 0.4 0.3 0.8 0.7 0.4 0.4 0.6 0.9 0.3 0.5 0.4 1 0.1 0.1 0.1 0.3 0 0.2 0 0.4 0.1 0.1 0.1 0.3 0 0.2 0 0.4v14.8c0 0.4 0 0.4 0.4 0.4h40.5q0.2 0 0.4 0 0.2 0 0.3 0 0.2 0.1 0.4 0.1 0.2 0 0.4 0 0.5 0.2 1 0.4 0.5 0.3 1 0.7 0.4 0.4 0.7 0.8 0.3 0.5 0.5 1.1 0 0.1 0.1 0.2 0 0.1 0 0.3 0 0.1 0 0.2 0.1 0.1 0.1 0.3v40.6q0 0.4 0 0.9 0 0 0 0.1 0 0.1 0.1 0.1 0 0.1 0.1 0.1 0 0 0.1 0h0.8 13.9q0.4 0 0.8 0 0.6 0 1 0.2 0.5 0.1 1 0.3 0.4 0.3 0.8 0.6 0.3 0.4 0.6 0.8 0.2 0.3 0.4 0.6 0.1 0.3 0.2 0.7 0.1 0.3 0.2 0.7 0 0.3 0 0.7 0 1.4 0 2.8 0 0.4 0 0.8-0.1 0.4-0.3 0.8-0.1 0.4-0.4 0.7-0.2 0.4-0.5 0.7-0.3 0.3-0.7 0.6-0.4 0.3-0.8 0.5-0.4 0.1-0.9 0.2-0.5 0.1-0.9 0.1-1.8 0-3.5 0h-11.2c-0.8 0-0.8 0-0.8 0.8v14q0 9.3 0 18.5c0 1.2 0 1.2 1 1.2h14.7q0.7 0 1.3 0.2 0.7 0.2 1.2 0.6 0.5 0.4 0.9 0.9 0.4 0.5 0.6 1.2 0.1 0.2 0.2 0.4 0 0.2 0 0.4 0.1 0.2 0.1 0.4 0 0.2 0 0.4 0 1.3 0 2.6 0 0.3 0 0.6 0 0.2-0.1 0.5-0.1 0.3-0.2 0.5 0 0.3-0.2 0.5-0.2 0.5-0.5 0.8-0.3 0.4-0.7 0.7-0.3 0.3-0.8 0.5-0.4 0.2-0.9 0.3-0.2 0.1-0.4 0.1-0.1 0-0.3 0-0.2 0.1-0.4 0.1-0.2 0-0.4 0h-14.1-0.8q0 0-0.1 0 0 0 0 0.1-0.1 0-0.1 0 0 0.1 0 0.1 0 0.4 0 0.7v32.3q0 0.4 0 0.7 0 0.1 0 0.2 0 0.1 0.1 0.2 0.1 0 0.1 0.1 0.1 0 0.2 0h15.5q0.5 0 1 0.1 0.4 0.2 0.9 0.4 0.4 0.2 0.8 0.6 0.3 0.3 0.6 0.7 0.2 0.3 0.4 0.6 0.1 0.3 0.3 0.7 0.1 0.3 0.1 0.7 0.1 0.3 0.1 0.7 0 1.4 0 2.8 0 0.4-0.1 0.8-0.1 0.4-0.3 0.8-0.1 0.4-0.3 0.7-0.3 0.4-0.5 0.7-0.4 0.3-0.8 0.6-0.3 0.3-0.8 0.4-0.4 0.2-0.9 0.3-0.4 0.1-0.9 0.1-1.5 0-3 0h-11.7c-0.8 0-0.8 0-0.8 0.8z"/>
	<path id="Layer" class="s1" d="m243.2 167.1v71.2q0 0.6-0.2 1.2-0.2 0.6-0.6 1.1-0.4 0.6-0.9 1-0.5 0.3-1.2 0.6-0.2 0-0.4 0.1-0.2 0.1-0.4 0.1-0.2 0-0.4 0-0.2 0.1-0.5 0.1-0.3 0-0.6 0h-141q-0.4 0-0.8-0.1-0.4-0.1-0.8-0.3-0.3-0.1-0.7-0.3-0.3-0.2-0.6-0.5-0.3-0.3-0.6-0.7-0.3-0.3-0.4-0.7-0.2-0.4-0.3-0.9-0.1-0.4-0.1-0.8v-142.1q0-0.4 0.1-0.8 0.1-0.3 0.2-0.7 0.2-0.3 0.4-0.6 0.2-0.4 0.4-0.6 0.2-0.3 0.5-0.5 0.2-0.2 0.5-0.4 0.2-0.1 0.5-0.2 0.3-0.2 0.6-0.2 0.1-0.1 0.2-0.1 0.1 0 0.2 0 0.1 0 0.2-0.1 0.1 0 0.2 0h142.2q0.7 0 1.3 0.2 0.7 0.2 1.3 0.6 0.5 0.5 0.9 1 0.4 0.6 0.6 1.2 0.1 0.2 0.1 0.3 0.1 0.1 0.1 0.3 0 0.1 0 0.3 0 0.1 0 0.2 0 0.7 0 1.3z"/>
	<path id="Layer" class="s2" d="m168 103.8h58q0.6 0 1.1 0 0.5 0 1 0.1 0.4 0.2 0.8 0.4 0.5 0.2 0.8 0.5 0.4 0.3 0.6 0.7 0.3 0.3 0.4 0.6 0.2 0.4 0.3 0.7 0.1 0.4 0.2 0.7 0 0.4 0 0.8 0 0.3 0 0.6v116.5q0 0.4 0 0.9 0 0.4-0.1 0.7 0 0.4-0.2 0.8-0.1 0.3-0.3 0.6-0.2 0.4-0.5 0.6-0.3 0.4-0.7 0.7-0.4 0.3-0.9 0.5-0.4 0.2-0.9 0.3-0.5 0.1-1 0h-117q-0.2 0.1-0.4 0.1-0.2-0.1-0.4-0.1-0.2 0-0.4 0-0.1 0-0.3-0.1-0.4-0.1-0.8-0.2-0.4-0.1-0.7-0.3-0.3-0.2-0.6-0.5-0.3-0.3-0.6-0.6-0.2-0.3-0.3-0.6-0.2-0.3-0.3-0.6-0.2-0.4-0.2-0.7-0.1-0.4-0.1-0.7v-118.2q0-0.4 0.1-0.8 0.1-0.3 0.2-0.7 0.2-0.3 0.4-0.7 0.2-0.3 0.5-0.6 0.2-0.2 0.4-0.4 0.2-0.2 0.5-0.3 0.2-0.2 0.5-0.3 0.3-0.1 0.6-0.2 0.1-0.1 0.2-0.1 0.1 0 0.2 0 0.1 0 0.2 0 0.1-0.1 0.2-0.1h59.5z"/>
	<path id="Layer" class="s1" d="m210.7 163.7v-9.6q0-0.4 0-0.8 0-0.2 0-0.5 0.1-0.2 0.3-0.4 0.1-0.2 0.3-0.3 0.2-0.1 0.5-0.2 0.3-0.1 0.6-0.1 0.3 0 0.6 0 0.3-0.1 0.6 0 0.3 0 0.6 0.1 0.1 0 0.3 0.1 0.1 0 0.3 0.1 0.1 0.1 0.2 0.2 0.1 0.1 0.2 0.2 0.1 0.1 0.2 0.2 0 0.1 0.1 0.3 0 0.1 0 0.2 0.1 0.2 0.1 0.3c0 0.5 0 1 0 1.6q0 0 0 0.1 0 0 0 0.1 0 0 0 0.1 0 0 0 0.1 0 0 0 0 0 0.1 0 0.1 0.1 0 0.1 0 0 0 0 0 0.1 0.1 0.2 0.1 0 0 0.1 0 0.1 0 0.1 0 0.1 0 0.2-0.1 0.1 0 0.2 0 0.1 0 0.3 0 0.1-0.1 0.2-0.1 0.1 0 0.3 0 1.8 0.1 3.6 0 0.4 0 0.7 0.1 0.4 0 0.7 0.1 0.4 0.1 0.7 0.2 0.3 0.1 0.6 0.3 0.5 0.2 1 0.6 0.5 0.3 0.9 0.8 0.4 0.4 0.7 0.9 0.3 0.5 0.5 1.1 0 0.2 0.1 0.4 0.1 0.2 0.1 0.4 0.1 0.2 0.2 0.4 0 0.3 0.1 0.5 0 0.1 0 0.2 0 0.1 0 0.2 0 0.1 0 0.2 0 0.1 0 0.1 0 5.6 0 11.1 0 0.8-0.2 1.4-0.1 0.7-0.4 1.4-0.3 0.6-0.8 1.2-0.4 0.6-0.9 1-0.3 0.3-0.6 0.5-0.3 0.2-0.6 0.4-0.3 0.1-0.7 0.2-0.3 0.2-0.6 0.2-0.2 0.1-0.4 0.1-0.1 0.1-0.3 0.1-0.2 0-0.4 0-0.1 0-0.3 0-2.2 0-4.4 0-0.5 0-1-0.1-0.5 0-1-0.2-0.4-0.1-0.9-0.4-0.4-0.2-0.8-0.5-0.2-0.1-0.3-0.2-0.1-0.1-0.2-0.2-0.1-0.1-0.2-0.2-0.1-0.1-0.2-0.2-0.2-0.4-0.4-0.7-0.2-0.4-0.4-0.7-0.2-0.4-0.3-0.8-0.1-0.4-0.2-0.8 0-0.2-0.1-0.5 0-0.2 0-0.5 0-0.3 0-0.5 0-0.3 0-0.5c0-3 0-6 0-9z"/>
	<path id="Layer" class="s1" d="m167.5 167.7v4.8q0 0.1 0 0.2 0 0.1 0 0.3 0 0.1 0 0.2 0.1 0.1 0.1 0.2 0.1 0.3 0.2 0.5 0.1 0.2 0.3 0.4 0.2 0.1 0.5 0.2 0.2 0.1 0.5 0.1 0 0 0.1 0 0 0 0.1 0 0.1 0 0.1 0 0.1 0 0.2 0h3q0.1 0 0.2 0 0 0 0.1 0 0.1 0 0.1 0 0.1 0 0.2 0 0.1 0 0.3-0.1 0.1-0.1 0.3-0.2 0.1-0.1 0.2-0.2 0.1-0.2 0.2-0.3 0-0.1 0-0.3 0-0.1 0.1-0.2 0-0.1 0-0.2 0-0.2 0-0.3 0-1.2 0-2.5 0-0.2 0.1-0.4 0-0.2 0.1-0.4 0.1-0.2 0.2-0.3 0.2-0.2 0.4-0.3 0.1 0 0.1-0.1 0.1 0 0.2-0.1 0.1 0 0.2 0 0.1 0 0.2 0 0.9 0 1.9 0 0.2 0 0.4 0 0.2 0.1 0.4 0.2 0.2 0.1 0.3 0.3 0.1 0.2 0.2 0.4 0.1 0 0.1 0.1 0 0.1 0.1 0.2 0 0.1 0 0.2 0 0.1 0 0.1 0 1.5 0 3 0 0.7-0.2 1.2-0.1 0.6-0.3 1.2-0.2 0.6-0.6 1.1-0.3 0.5-0.7 1-0.3 0.3-0.6 0.6-0.3 0.3-0.7 0.5-0.4 0.3-0.8 0.5-0.4 0.1-0.9 0.2-0.1 0.1-0.3 0.1-0.2 0.1-0.4 0.1-0.2 0-0.4 0-0.1 0-0.3 0-2.1 0-4.2 0-0.5 0-1 0-0.4-0.1-0.9-0.2-0.5-0.1-0.9-0.3-0.5-0.2-0.9-0.5-0.2-0.1-0.4-0.3-0.3-0.2-0.5-0.4-0.2-0.2-0.3-0.5-0.2-0.2-0.4-0.5-0.2-0.3-0.3-0.7-0.2-0.3-0.3-0.7-0.1-0.4-0.2-0.8-0.1-0.4-0.1-0.8 0-0.1 0-0.1 0-0.1 0-0.2 0-0.1 0-0.1 0-0.1-0.1-0.2 0-0.1 0-0.2 0-0.1 0-0.2 0-0.1 0-0.2-0.1-0.1 0-0.3 0-4.8 0-9.6-0.1-0.1-0.1-0.2 0-0.1 0.1-0.2 0-0.1 0-0.2 0-0.1 0-0.2 0-0.1 0.1-0.2 0 0 0-0.1 0-0.1 0-0.1 0-0.1 0-0.2 0-0.3 0.1-0.7 0-0.4 0.1-0.7 0.1-0.4 0.3-0.7 0.1-0.4 0.3-0.7 0.2-0.4 0.5-0.8 0.3-0.4 0.7-0.8 0.4-0.3 0.8-0.5 0.4-0.3 0.9-0.5 0.2 0 0.4-0.1 0.1 0 0.3-0.1 0.2 0 0.4 0 0.2-0.1 0.4-0.1 0.3 0 0.6-0.1 0.4 0 0.7 0 0.4 0 0.7 0 0.4 0 0.7 0 1.1 0 2.1 0 0.3 0 0.7 0 0.3 0 0.6 0.1 0.3 0.1 0.6 0.1 0.3 0.1 0.6 0.2 0.2 0.1 0.3 0.2 0.2 0 0.4 0.1 0.1 0.1 0.3 0.2 0.2 0.1 0.3 0.2 0.3 0.2 0.5 0.5 0.3 0.2 0.5 0.5 0.3 0.2 0.5 0.5 0.2 0.3 0.4 0.6 0.1 0.2 0.2 0.5 0.1 0.2 0.2 0.5 0.1 0.3 0.2 0.6 0.1 0.2 0.1 0.5 0.1 0.3 0.1 0.5 0.1 0.3 0.1 0.5 0 0.3 0 0.6 0 0.2 0 0.5 0 1 0 1.9 0 0.2 0 0.3 0 0.2-0.1 0.3 0 0.2-0.1 0.3-0.1 0.1-0.1 0.3-0.1 0-0.1 0.1-0.1 0-0.1 0.1-0.1 0-0.1 0-0.1 0.1-0.1 0.1-0.1 0-0.1 0.1 0 0-0.1 0 0 0-0.1 0 0 0 0 0.1-0.3 0-0.6 0.1-0.4 0-0.7 0-0.3 0-0.6 0-0.3 0-0.6-0.1-0.2 0-0.4-0.1-0.1-0.1-0.3-0.2-0.1-0.1-0.3-0.2-0.1-0.2-0.2-0.3 0-0.1-0.1-0.2 0-0.1 0-0.2-0.1-0.1-0.1-0.2 0-0.2 0-0.3 0-1.3 0-2.6 0-0.1 0-0.2 0-0.2-0.1-0.3 0-0.1 0-0.2-0.1-0.2-0.1-0.3-0.1-0.1-0.2-0.2-0.1-0.1-0.2-0.1-0.1-0.1-0.2-0.1-0.1-0.1-0.2-0.1h-4.2q-0.1 0-0.1 0-0.1 0-0.1 0-0.1 0-0.1 0-0.1 0-0.1 0-0.2 0-0.3 0.1-0.1 0-0.2 0.1-0.1 0.1-0.2 0.2-0.1 0.1-0.2 0.2-0.1 0.1-0.1 0.3-0.1 0.1-0.1 0.3-0.1 0.1-0.1 0.3 0 0.1 0 0.3 0 2.3 0 4.6v0.5z"/>
	<path id="Layer" class="s1" d="m207.3 165.3q0 3.6 0 7.3 0 0.4 0 0.7 0 0.4-0.1 0.7 0 0.4-0.1 0.8-0.1 0.3-0.2 0.7 0 0.2-0.1 0.4-0.1 0.3-0.2 0.5-0.1 0.2-0.2 0.4-0.1 0.3-0.3 0.5-0.2 0.3-0.4 0.6-0.3 0.2-0.6 0.5-0.3 0.2-0.6 0.4-0.3 0.2-0.6 0.3-0.2 0.1-0.4 0.2-0.2 0-0.4 0.1-0.2 0.1-0.4 0.1-0.2 0-0.4 0.1-0.3 0-0.5 0-0.2 0-0.4 0.1-0.3 0-0.5 0-0.2 0-0.5 0-1.7 0-3.5 0-0.5 0-1-0.1-0.5-0.1-0.9-0.2-0.5-0.2-0.9-0.4-0.4-0.2-0.8-0.5-0.4-0.3-0.7-0.6-0.4-0.4-0.6-0.8-0.3-0.4-0.5-0.8-0.2-0.4-0.4-0.9-0.1-0.2-0.2-0.4 0-0.2-0.1-0.4 0-0.2 0-0.4-0.1-0.2-0.1-0.5 0-0.2-0.1-0.5 0-0.2 0-0.5 0-0.3 0-0.5 0-0.3 0-0.5v-13.8q0-0.2 0-0.5 0-0.2 0-0.3 0-0.2 0.1-0.4 0.1-0.2 0.2-0.3 0.1-0.2 0.2-0.3 0.2-0.1 0.3-0.2 0.2-0.1 0.3-0.1 0.2-0.1 0.4-0.1 0.1-0.1 0.3-0.1 0.2 0.1 0.4 0.1 0.2 0 0.4 0 0.2 0 0.4 0 0.2 0 0.4 0 0.1 0 0.1 0 0.1 0 0.2 0 0.1 0.1 0.1 0.1 0.1 0 0.2 0 0.2 0.1 0.3 0.3 0.2 0.1 0.3 0.3 0.1 0.1 0.2 0.3 0.1 0.2 0.1 0.4 0 0.1 0 0.2 0 0.1 0 0.2 0 0.1 0 0.2 0 0.1 0 0.1v14.6q0 0.2 0 0.4 0 0.1 0 0.3 0 0.1 0.1 0.3 0 0.2 0 0.3 0.1 0.1 0.1 0.1 0 0.1 0 0.1 0 0.1 0.1 0.1 0 0.1 0 0.1 0 0.1 0.1 0.1 0 0.1 0.1 0.1 0 0.1 0.1 0.1 0 0 0.1 0.1 0.1 0 0.2 0 0.1 0 0.2 0.1 0.1 0 0.2 0 0.1 0 0.2 0 1.8 0 3.6 0 0.3 0 0.6-0.1 0.3-0.1 0.6-0.3 0.2-0.2 0.3-0.5 0.2-0.3 0.2-0.6 0-0.1 0-0.2 0-0.1 0-0.2 0-0.1 0-0.2 0-0.1 0-0.2 0-0.1 0-0.2 0 0 0-0.1 0-0.1 0-0.2 0-0.1 0-0.1v-13.5q0-0.1 0-0.3 0-0.2 0-0.3 0-0.2 0.1-0.4 0-0.1 0-0.3 0.1-0.2 0.1-0.4 0.1-0.1 0.3-0.3 0.1-0.1 0.3-0.2 0.1-0.1 0.3-0.2 0.1-0.1 0.3-0.1 0.1 0 0.2-0.1 0.1 0 0.3 0 0.1 0 0.2 0 0.2 0 0.4 0 0.2 0 0.4 0 0.2 0 0.5 0.1 0.2 0 0.4 0 0.2 0.1 0.4 0.2 0.2 0.2 0.4 0.4 0.1 0.2 0.3 0.4 0.1 0.2 0.1 0.5 0 0.3 0 0.7z"/>
	<path id="Layer" class="s1" d="m113.8 167.7v-6q0-0.4 0-0.8 0 0 0-0.1 0 0 0 0-0.1-0.1-0.1-0.1 0 0-0.1 0h-0.6-3q-0.1 0-0.2 0-0.1 0-0.2 0-0.1-0.1-0.2-0.1-0.2 0-0.3 0-0.1-0.1-0.3-0.1-0.1-0.1-0.3-0.2-0.1-0.1-0.2-0.3-0.1-0.1-0.2-0.2 0-0.1 0-0.2-0.1-0.1-0.1-0.1 0-0.1 0-0.2 0-0.1-0.1-0.1 0-0.3 0-0.6-0.1-0.3-0.1-0.6 0.1-0.3 0.1-0.6 0-0.3 0.1-0.5 0.1-0.2 0.2-0.4 0.1-0.1 0.2-0.3 0.1-0.1 0.3-0.2 0.2-0.1 0.3-0.1 0.2-0.1 0.3-0.1 0.1-0.1 0.2-0.1 0.1 0 0.3 0 0.1 0 0.2 0h12.3q0.2 0 0.3 0 0.1 0 0.2 0 0.1 0 0.3 0.1 0.1 0 0.2 0 0.2 0.1 0.5 0.2 0.2 0.1 0.3 0.3 0.2 0.2 0.3 0.4 0.1 0.2 0.2 0.5 0 0.2 0 0.5 0 0.2 0 0.5 0 0.2 0 0.5 0 0.2 0 0.5 0 0.2-0.1 0.4-0.1 0.3-0.2 0.4-0.2 0.2-0.4 0.4-0.2 0.1-0.4 0.1-0.1 0.1-0.2 0.1-0.1 0-0.3 0.1-0.1 0-0.2 0-0.1 0-0.2 0c-1 0-2 0-2.9 0h-0.7q-0.1 0-0.1 0-0.1 0.1-0.1 0.1-0.1 0-0.1 0.1 0 0 0 0.1 0 0.3 0 0.6v12.3c0 0.9 0 1 0.9 1h3q0.4 0 0.7 0 0.1 0 0.1 0 0 0 0.1 0 0 0 0.1 0 0 0 0 0 0.2 0.1 0.4 0.3 0.2 0.1 0.3 0.3 0.1 0.1 0.2 0.4 0.1 0.2 0.1 0.4 0.1 0.2 0.1 0.5 0 0.2 0 0.4 0 0.3 0 0.5 0 0.3-0.1 0.5 0 0.3-0.1 0.6-0.2 0.2-0.4 0.4-0.2 0.2-0.4 0.4-0.3 0.1-0.6 0.1-0.3 0-0.6 0h-12.3q-0.1 0-0.1 0-0.1 0-0.2 0 0 0-0.1 0-0.1 0-0.1 0-0.3 0-0.5 0-0.2-0.1-0.4-0.2-0.2-0.1-0.3-0.3-0.2-0.1-0.3-0.3 0-0.1-0.1-0.1 0-0.1 0-0.2-0.1-0.1-0.1-0.2 0-0.1 0-0.2-0.1-0.2-0.1-0.5 0-0.3 0-0.6 0-0.3 0.1-0.6 0-0.3 0.1-0.6 0-0.1 0.1-0.3 0.1-0.2 0.2-0.3 0.1-0.1 0.3-0.2 0.1-0.1 0.3-0.2 0.1 0 0.1 0 0.1 0 0.2-0.1 0.1 0 0.2 0 0.1 0 0.2 0h3.8q0.1 0 0.1 0 0.1 0 0.1-0.1 0.1 0 0.1-0.1 0 0 0-0.1z"/>
	<path id="Layer" class="s1" d="m138.1 169.6v7.8q0 0.4 0 0.7 0 0.3-0.1 0.6-0.1 0.3-0.3 0.5-0.2 0.2-0.5 0.4-0.3 0.1-0.6 0.1-0.9 0-1.8 0-0.3 0-0.6-0.1-0.3-0.2-0.5-0.4-0.2-0.2-0.3-0.4-0.1-0.3-0.2-0.6 0-0.4 0-0.8v-15.6q0-0.5 0-0.9 0-0.1 0-0.1 0 0 0-0.1-0.1 0-0.1 0 0 0-0.1 0h-0.6-3q-0.1 0-0.2 0-0.1 0-0.1-0.1-0.1 0-0.2 0-0.1 0-0.2 0-0.3-0.1-0.5-0.2-0.3-0.2-0.5-0.4-0.2-0.2-0.3-0.5-0.1-0.3-0.1-0.6 0-0.2 0-0.4 0-0.1 0-0.3 0-0.2 0-0.4 0-0.2 0-0.4 0-0.3 0.1-0.5 0.1-0.3 0.3-0.5 0.2-0.3 0.4-0.4 0.2-0.2 0.5-0.2 0.1-0.1 0.3-0.1 0.1 0 0.2 0 0.1-0.1 0.2-0.1 0.1 0 0.3 0h12.2q0.1 0 0.2 0 0.1 0.1 0.2 0.1 0.1 0 0.2 0 0.2 0 0.3 0 0.1 0 0.3 0.1 0.1 0.1 0.3 0.2 0.1 0 0.2 0.2 0.1 0.1 0.2 0.2 0.1 0.1 0.2 0.2 0 0.1 0.1 0.3 0 0.1 0.1 0.2 0 0.2 0 0.3 0 0.7 0 1.3 0 0.4-0.1 0.7-0.2 0.4-0.4 0.7-0.3 0.2-0.6 0.4-0.4 0.1-0.8 0.1-0.9 0-1.7 0h-1.8c-0.5 0-0.6 0.1-0.6 0.6q0 0.3 0 0.6z"/>
	<path id="Layer" class="s1" d="m187.3 165.3v11.3q0 0.3 0 0.7 0 0.2-0.1 0.5-0.1 0.2-0.2 0.4-0.1 0.2-0.3 0.3-0.2 0.2-0.4 0.3-0.1 0-0.1 0-0.1 0-0.1 0-0.1 0-0.1 0-0.1 0-0.1 0-0.9 0-1.8 0-0.3 0-0.6-0.1-0.3-0.1-0.6-0.3-0.2-0.2-0.4-0.6-0.1-0.3-0.1-0.6 0-0.2 0-0.4v-22.9q0-0.1 0-0.2 0-0.1 0-0.3 0-0.1 0.1-0.2 0-0.1 0-0.2 0.1-0.2 0.2-0.4 0.1-0.1 0.2-0.2 0.1-0.2 0.2-0.3 0.2-0.1 0.3-0.1 0.1-0.1 0.2-0.1 0.1 0 0.2-0.1 0.1 0 0.2 0 0.1 0 0.2-0.1 0.3 0 0.5 0 0.3 0 0.5 0 0.3 0.1 0.6 0.1 0.2 0 0.5 0.1 0.2 0.1 0.4 0.2 0.2 0.1 0.3 0.3 0.2 0.2 0.2 0.4 0.1 0.2 0.1 0.5 0 0.4 0 0.7z"/>
	<path id="Layer" class="s1" d="m151.4 174.8h6.2q0.1 0 0.2 0 0.1 0 0.2 0 0.1 0 0.2 0 0.1 0 0.2 0 0.2 0 0.4 0.1 0.3 0.1 0.4 0.3 0.2 0.1 0.3 0.4 0.1 0.2 0.1 0.4 0 0.3 0.1 0.6 0 0.3 0 0.6 0 0.2 0 0.5-0.1 0.3-0.1 0.6 0 0.2-0.1 0.4-0.1 0.2-0.2 0.4-0.1 0.1-0.3 0.2-0.2 0.2-0.4 0.2-0.1 0.1-0.2 0.1-0.1 0-0.3 0-0.1 0.1-0.2 0.1-0.1 0-0.3 0h-8.9q-1.9 0-3.8 0-0.1 0-0.3 0-0.1-0.1-0.3-0.1-0.2-0.1-0.3-0.1-0.2-0.1-0.3-0.2-0.1-0.1-0.3-0.2-0.1-0.1-0.2-0.3-0.1-0.1-0.1-0.3-0.1-0.2-0.1-0.3 0-0.9 0-1.9 0-0.2 0.1-0.4 0.1-0.2 0.2-0.4 0.1-0.2 0.3-0.4 0.2-0.1 0.4-0.2 0-0.1 0.1-0.1 0 0 0 0 0.1 0 0.1 0 0.1 0 0.1 0 0.4 0 0.8 0z"/>
	<path id="Layer" class="s2" d="m222.4 167.7v5q0 0 0 0.1 0 0.1 0 0.2 0 0.1 0 0.2 0 0.1 0 0.2 0 0.3-0.1 0.5-0.1 0.2-0.3 0.4-0.2 0.2-0.4 0.2-0.2 0.1-0.5 0.1-1.9 0-3.9 0-0.2 0-0.5 0-0.2-0.1-0.4-0.2-0.2-0.2-0.3-0.4-0.2-0.2-0.2-0.4-0.1-0.2-0.1-0.3 0-0.1-0.1-0.2 0-0.1 0-0.3 0-0.1 0-0.2v-9.8q0-0.1 0-0.2 0-0.2 0-0.3 0.1-0.1 0.1-0.2 0-0.1 0-0.2 0.1-0.1 0.1-0.2 0 0 0.1-0.1 0 0 0-0.1 0.1 0 0.1-0.1 0.1-0.1 0.2-0.2 0.2-0.2 0.3-0.2 0.2-0.1 0.4-0.1 0.1-0.1 0.3-0.1 2 0 3.9 0h0.1q0.2 0 0.5 0.1 0.2 0.1 0.3 0.2 0.2 0.2 0.3 0.4 0.1 0.2 0.1 0.4 0 0.1 0 0.2 0 0.1 0 0.2 0 0.1 0 0.2 0 0.1 0 0.2z"/>
</svg>